<svg xmlns="http://www.w3.org/2000/svg" viewBox="0 0 41.87 41.87"><linearGradient id="a" gradientUnits="userSpaceOnUse" x1="13.537" y1="40.34" x2="13.537" y2="2.836"><stop offset="0" stop-color="#EDECFF"/><stop offset="1" stop-color="#EDECFF"/></linearGradient><path d="M13.54 21.08c5.82 0 10.54-4.72 10.54-10.54C24.07 4.73 19.36 0 13.54 0S3 4.72 3 10.54s4.72 10.54 10.54 10.54zm-3.68-6.37l.3-1.04c.12-.4.24-.44.6-.25a5.79 5.79 0 001.99.59c.44.05.89.01 1.3-.17.78-.34.9-1.24.24-1.78-.23-.18-.48-.32-.74-.44-.68-.3-1.39-.52-2.03-.91-1.04-.62-1.7-1.48-1.62-2.75.09-1.43.9-2.33 2.21-2.8.54-.2.54-.19.55-.76v-.58c.01-.43.09-.5.51-.51h.39c.91 0 .91 0 .91.91 0 .64 0 .65.64.74.49.08.95.22 1.4.42.25.11.34.29.27.55l-.35 1.17c-.12.37-.24.42-.58.25a4.42 4.42 0 00-2.23-.44c-.21.01-.4.03-.59.12-.67.3-.79 1.04-.21 1.5.29.24.62.4.97.54.59.24 1.19.49 1.77.8 1.81 1 2.29 3.27 1.02 4.81-.46.56-1.06.93-1.76 1.13-.31.09-.44.24-.43.56.02.31 0 .62 0 .93 0 .28-.14.43-.42.44a16.67 16.67 0 01-1 0c-.3-.01-.44-.17-.44-.46 0-.23 0-.45-.01-.68-.01-.5-.02-.52-.51-.6-.62-.1-1.22-.24-1.79-.51-.44-.21-.49-.32-.36-.78z" fill="url(#a)"/><linearGradient id="b" gradientUnits="userSpaceOnUse" x1="21.775" y1="40.34" x2="21.775" y2="2.836"><stop offset="0" stop-color="#EDECFF"/><stop offset="1" stop-color="#EDECFF"/></linearGradient><path d="M37.17 21.96h-1.23c-.81-2.49-2.4-4.69-4.52-6.4 0-.08-.02-.17-.03-.24-.44-1.56.1-2.98.74-4 .44-.72-.13-1.63-.97-1.53-1.88.24-3.17.92-4.06 1.7a3.94 3.94 0 00-1.24 2.04c-1.34 5.56-6.36 9.71-12.33 9.71a12.63 12.63 0 01-7.71-2.62c-.74 1.6-1.14 3.36-1.14 5.2a12.18 12.18 0 00.35 2.9.1.1 0 00.01.04c.24.97.59 1.9 1.05 2.78.6 1.3 1.47 2.82 2.68 4.05 1.74 1.79 2.03 4 2.08 4.96v.47c.03.47.43.85.91.85h5.51c.5 0 .91-.4.91-.91V39.6a19.76 19.76 0 002.45.17 17.69 17.69 0 001.93-.1v1.3c0 .5.4.91.91.91H29c.5 0 .91-.4.91-.91V39.6c.01-.45.17-2.26 1.88-3.8.06-.05.12-.1.18-.16.02-.02.03-.03.05-.04 1.9-1.69 3.31-3.8 4.03-6.16h1.16c.92 0 1.67-.75 1.67-1.67v-4.13c-.03-.93-.78-1.68-1.71-1.68zm-6.89.3c-.76 0-1.37-.61-1.37-1.37s.61-1.37 1.37-1.37 1.37.61 1.37 1.37c-.01.76-.62 1.37-1.37 1.37z" fill="url(#b)"/></svg>