<svg xmlns="http://www.w3.org/2000/svg" viewBox="0 0 500 500"><circle cx="250" cy="250" r="242.5" fill="#fff"/><path d="M106.15 275.74a1.78 1.78 0 01.43.33c3.56 5.19 3.7 5.34-.91 9.54-13.42 12.27-27.81 23.07-45.43 28.69A46 46 0 0136 315.58c-13.83-3-16.23-16.53-13.15-26a40.78 40.78 0 0113-18.68 103.62 103.62 0 0021-23.87c2.12-3.36 3.94-6.9 3.85-11.07-.11-5.41-4.28-8.48-9.08-6a39.92 39.92 0 00-9.79 7.39c-1.85 1.84-3.19 2.27-5.29 1a23 23 0 00-2.27-1 52.78 52.78 0 0115.61-13.12c7.5-4.24 15.43-7.14 24.19-7.36 20.84-.54 25.45 20.18 18.88 32a35.51 35.51 0 01-15 14.59c-7.24 3.72-14.27 7.79-19.83 13.82a33.79 33.79 0 00-5.65 8.57c-1.65 3.57-.3 6.95 2.79 9.41 4.23 3.37 9.11 3.28 14 2.5 10.75-1.71 19.72-7.17 28-13.92 2.97-2.57 5.82-5.34 8.89-8.1zm83.49 11.74l-9.86-39.26-1.68 2.34-21.32 34.74a10.06 10.06 0 01-2.27 2 14 14 0 01-1.18-2.59q-5.76-24.9-11.42-49.81c-.18-.79-.26-1.61-.43-2.73a33.07 33.07 0 015.78.11c.69.13 1.46 1.43 1.67 2.32l5.71 25.15 2.87 12.61 24.56-40.3h.92l9.93 40.13 1.72-2.68q9.9-16.65 19.8-33.29c2.81-4.72 3.21-4.86 8.88-3.79-1.2 3.77-31.74 54.09-33.68 55.05zm194.24-27.13h-47.67c-4 12.52 6.46 24 19.51 21.65a26.28 26.28 0 0015.95-9l3.24-3.81 5 3c-6.92 12.92-23.34 19.74-37 15.54-7.95-2.45-13.31-9.74-14.25-19.41-1.61-16.69 11.52-34 28-37 12.94-2.34 23.63 3.68 26.94 15.23a29.68 29.68 0 01.28 13.8zm-6.45-6.15c-.22-6.16-2.22-11.06-7.62-14.12a19.08 19.08 0 00-15.63-1.48c-7.9 2.46-13 7.9-16.33 15.6zm-102.98-12.45l1.3-7.21c.23-1.89 1.07-2.63 3-2.4a37 37 0 004.13 0l-.4 3.08q-4.38 23.89-8.78 47.8c-1 5.25-.08 4.18-5.33 4.31-.58 0-1.16-.07-2.13-.14l1.45-8.57c-3 2.19-5.6 4.32-8.42 6.07a27.15 27.15 0 01-19 3.8c-10.93-1.69-18.22-10.85-18.39-22.7-.22-15.86 12.12-31.35 27.66-34.35 9.81-1.89 18.3.18 23.92 9.34a7.36 7.36 0 00.99.97zm-28.06 40.56c1.09-.1 2.2-.1 3.27-.29A27.16 27.16 0 00272 255.66c.16-11.62-8.86-19.5-20.35-17.77s-21.31 12-22.52 23.54c-1.27 11.85 6.17 20.82 17.26 20.88zM97.41 215.33a64 64 0 01-6.41-1.07c-6.13-1.61-9.16-6.76-7.82-13a17.85 17.85 0 016.17-10.47c5.66-4.6 12.08-7.37 19.45-7.44 4.9-.05 8.24 3 9 7.84 1.86 12.03-8.22 23.89-20.39 24.14zM396 287.37l9-49.08h-8.82c-.23-.5-.37-.66-.35-.79.85-5.33.85-5.33 6.24-5.33a11.61 11.61 0 011.77 0c1.84.28 2.44-.54 2.74-2.31 1-6 2.17-11.92 3.3-18h6.72l-3.61 20.15h10.7a36.54 36.54 0 01-.85 5c-.16.51-1.21 1-1.88 1a53.83 53.83 0 01-6.84 0c-1.87-.13-2.47.67-2.78 2.38l-8 44.06c-.4 2.29-1.23 3-3.4 2.79a35.44 35.44 0 00-3.94.13zm-69.85-76.18l-3 16.62-10.28 56.54c-.42 2.36-1.24 3.45-3.72 3a25.29 25.29 0 00-3.64 0l2.2-12.39q5.52-30.26 11.06-60.5c.7-3.96 1.37-4.29 7.38-3.27zm-18.02-.31l-3.2 17.36q-4.94 27-9.86 54c-1.06 5.75-1.34 5.9-7.64 4.77q1.45-8.06 2.93-16.11l10.33-56.76c.46-2.61 1.3-3.75 4-3.31a24.24 24.24 0 003.44.05zm136.11 66.33c0 5.53-3.89 9.52-9.26 9.53a9.63 9.63 0 01-.1-19.26c5.42-.01 9.38 4.1 9.36 9.73zm24.58 9.53a9.63 9.63 0 119.49-9.62 9.27 9.27 0 01-9.49 9.62z" fill="#002f59"/></svg>