<svg xmlns="http://www.w3.org/2000/svg" viewBox="0 0 500 500"><style>.B{fill:#e1e36b}.C{fill:#dcc426}.D{fill:#cd790a}.E{fill:#d19401}.F{fill:#c85c14}.G{fill:#d29503}</style><circle cx="250" cy="250" fill="#fff" r="242.5"/><path d="M297.49 166.47l3.68 63.6-71.79-48.56z" class="B"/><g class="D"><path d="M297.49 166.47l35.57 37.24-31.89 26.36z"/><path d="M275.95 143.91l33.15-2.15 23.96 61.95z"/></g><g class="E"><path d="M275.95 143.91l21.54 22.56-68.11 15.04zM229.38 181.51l-18.34 40.97 44.54-23.25z"/></g><path d="M247.23 254.77l1.71-.74 6.64-54.8-44.54 23.25z" class="C"/><path d="M255.58 199.23l-6.64 54.8 52.23-23.96z" class="F"/><path d="M247.23 254.77l-27.86 16.7-8.33-48.99z" class="B"/><path d="M219.37 271.47l-8.33-48.99L151.73 234z" class="G"/><path d="M151.73 234l67.64 37.47-20.06 21.54z" class="F"/><path d="M199.31 293.01l-35.64 4.25 9.96-35.94z" class="G"/><path d="M173.63 261.32l-9.96 35.94-32.52-19.76z" class="B"/><path d="M163.67 297.26l-44.16 5.79 11.64-25.55z" class="F"/><path d="M173.63 261.32l-42.48 16.18 5.49-26.92L151.73 234z" class="G"/><path d="M151.73 234l-27.66-1.94 12.57 18.52z" class="B"/><path d="M124.07 232.06l12.57 18.52-14.19-4.08z" class="F"/><g class="D"><path d="M124.07 232.06l-1.62 14.44-40.26-26.24zM82.19 220.26l9.5-9.52 5.77 13.82z"/><path d="M91.69 210.74l-9.5 9.52-20.07-20.99z"/></g><path d="M91.69 210.74l32.38 21.32-26.61-7.5zm-29.57-11.47l16.44 17.2-33.84-17.74-1.39-6.66z" class="B"/><path d="M43.33 192.07l1.39 6.66-8.07-7.63-6.03-14.53z" class="G"/><path d="M199.31 293.01l-65.07 41.16-14.73-31.12z" class="B"/><g fill="#ce7c09"><path d="M134.24 334.17l-32.98 5.7-17.37-18.83 35.62-17.99zM83.89 321.04l17.37 18.83-10.2 18.26z"/></g><path d="M83.89 321.04l10.25 53.53-16.49-20.28z" class="C"/><path d="M77.65 354.29l-6.14 30.06 31.16 1.07z" class="B"/><path d="M134.24 334.17l4.57 16.09-16.63 8.06-4.74-21.25z" class="C"/><g fill="#ce7c09"><path d="M138.81 350.26l.78 34.95-17.41-26.89z"/><path d="M139.23 366.66l25.94 18.8-25.58-.25zm60.08-73.65l-11.87 31.27-53.2 9.89zM134.24 334.17l4.57 16.09 8.97-8.73z"/><path d="M147.78 341.53l39.66-17.25-53.2 9.89z"/></g><path d="M275.95 143.91l71.18-4.56-18.34-18.81z" class="E"/><path d="M309.1 141.76l43.42 47.74-5.39-49.95z" class="C"/><path d="M309.1 141.76l43.42 47.74-19.46 14.21z" class="B"/><path d="M352.52 189.5l25.97-17.87-31.36-32.08z" class="F"/><path d="M378.49 171.63l3.68 17.9-49.11 14.18 19.46-14.21z" class="C"/><path d="M333.06 203.71l9.1 12.73 52.58 2.21 31.21-15.16-43.78-13.96z" class="D"/><path d="M425.95 203.49l-4.04 17.91-27.17-2.75z" class="C"/><path d="M425.95 203.49l-4.04 17.91 21.35 12.59z" class="B"/><path d="M425.95 203.49l43.43 7.29-2.71 20.25-23.41 2.96z" class="E"/><path d="M397.8 123.02l-19.31 48.61-49.7-51.09z" class="B"/><path d="M397.8 123.02l3.32 39.17-22.63 9.44z" class="C"/><path d="M401.12 162.19l-.02 14.74-22.61-5.3z" class="E"/><path d="M401.12 162.19l35.2 11.73-13.34 15.32-21.88-12.31z" class="D"/><path d="M401.12 162.19l26.05-6.04 9.15 17.77z" class="C"/><path d="M401.12 162.19l-3.32-39.17 17.75 35.82z" class="E"/><path d="M397.8 123.02l28.77 20.34.6 12.79-11.62 2.69z" class="B"/><path d="M397.8 123.02l6.27-4.02 17.7-4.46-6.44 12.11 11.24 16.71z" class="D"/></svg>