<svg xmlns="http://www.w3.org/2000/svg" viewBox="0 0 41.87 41.87"><linearGradient id="a" gradientUnits="userSpaceOnUse" x1="20.931" y1="29.655" x2="20.931" y2="8.723"><stop offset="0" stop-color="#EDECFF"/><stop offset="1" stop-color="#EDECFF"/></linearGradient><path d="M20.93 8.72c-5.77 0-10.47 4.69-10.47 10.47 0 5.77 4.69 10.47 10.47 10.47s10.47-4.7 10.47-10.47A10.49 10.49 0 0020.93 8.72zm-.22 9.16h.44a3.28 3.28 0 013.27 3.27c0 1.42-.91 2.62-2.18 3.07v.64c0 .72-.59 1.31-1.31 1.31s-1.31-.59-1.31-1.31v-.44h-.87c-.72 0-1.31-.59-1.31-1.31s.59-1.31 1.31-1.31h2.4a.65.65 0 100-1.3h-.44a3.28 3.28 0 01-3.27-3.27c0-1.42.91-2.62 2.18-3.07v-.64c0-.72.59-1.31 1.31-1.31s1.31.59 1.31 1.31v.44h.87c.72 0 1.31.59 1.31 1.31s-.59 1.31-1.31 1.31h-2.4a.65.65 0 000 1.3z" fill="url(#a)"/><linearGradient id="b" gradientUnits="userSpaceOnUse" x1="29.464" y1="41.867" x2="29.464" y2="17.919"><stop offset="0" stop-color="#EDECFF"/><stop offset="1" stop-color="#EDECFF"/></linearGradient><path d="M38.85 17.92c-.72 0-1.31.59-1.31 1.31 0 7.82-5.45 14.38-12.74 16.14v-1.63c0-1.16-1.41-1.75-2.23-.92l-3.41 3.41a1.31 1.31 0 000 1.85l3.41 3.41c.82.82 2.23.25 2.23-.92v-2.5c8.75-1.79 15.36-9.56 15.36-18.83 0-.73-.59-1.32-1.31-1.32z" fill="url(#b)"/><linearGradient id="c" gradientUnits="userSpaceOnUse" x1="8.134" y1="37.413" x2="8.134" y2="7.004"><stop offset="0" stop-color="#EDECFF"/><stop offset="1" stop-color="#EDECFF"/></linearGradient><path d="M15.39 34.87c-6.62-2.32-11.07-8.6-11.07-15.64a16.53 16.53 0 011.03-5.74l1.57.9c1 .58 2.22-.34 1.92-1.47L7.52 7.97c-.19-.69-.89-1.11-1.6-.92L.97 8.37c-1.13.3-1.32 1.82-.31 2.4l2.41 1.39c-.89 2.23-1.35 4.61-1.35 7.07 0 8.14 5.15 15.42 12.82 18.11.69.24 1.43-.13 1.67-.8.22-.69-.14-1.43-.82-1.67z" fill="url(#c)"/><linearGradient id="d" gradientUnits="userSpaceOnUse" x1="25.216" y1="15.583" x2="25.216" y2=".001"><stop offset="0" stop-color="#EDECFF"/><stop offset="1" stop-color="#EDECFF"/></linearGradient><path d="M40.22 8.58l-2.82.75C33.98 3.67 27.74 0 20.93 0c-4.38 0-8.49 1.44-11.88 4.16-.56.46-.65 1.28-.2 1.84.46.57 1.28.65 1.84.2 2.92-2.35 6.46-3.59 10.24-3.59 5.62 0 10.79 2.9 13.82 7.42l-1.52.41c-1.12.3-1.32 1.81-.32 2.4l4.43 2.56a1.32 1.32 0 00.99.13c.33-.09.62-.31.79-.61l2.56-4.43c.59-1-.33-2.21-1.46-1.91z" fill="url(#d)"/></svg>