<svg xmlns="http://www.w3.org/2000/svg" viewBox="0 0 500 500"><circle cx="250.13" cy="250" r="249.87" fill="#b2a49b"/><path d="M188.27 393.16h124.01v12.63H188.27zm54.44-27.1h-39.73v18.42h94.58v-18.42h-39.73V137.1H373.8v-15.12H126.74v15.12h115.97zm-89.18-189.39l30.15 72.7h14.72l-44.87-102.38-44.88 102.38h14.23zm53.07 82.51H100.45s20.27 32.81 54.77 32.81 51.38-32.81 51.38-32.81zm95.38-9.81h14.24l30.64-72.7 30.16 72.7h14.71l-44.87-102.38zm-8.2 9.81s20.27 32.81 54.77 32.81 51.39-32.81 51.39-32.81H293.78z" fill="#fff"/></svg>