<svg xmlns="http://www.w3.org/2000/svg" viewBox="0 0 41.87 41.87"><linearGradient id="a" gradientUnits="userSpaceOnUse" x1="24.018" y1="41.457" x2="24.018" y2="5.698"><stop offset="0" stop-color="#EDECFF"/><stop offset="1" stop-color="#EDECFF"/></linearGradient><path d="M24.02 1.2a11.05 11.05 0 00-11.03 11.03 11.05 11.05 0 0011.03 11.03 11.05 11.05 0 0011.03-11.03C35.04 6.14 30.1 1.2 24.02 1.2zm1.16 16.03v.24a1.16 1.16 0 11-2.32 0v-.11c-.53-.09-1.02-.29-1.63-.7a1.16 1.16 0 01-.33-1.6 1.16 1.16 0 011.6-.33c.56.37.75.4 1.52.39.74 0 1.04-.59 1.1-.93.05-.31-.01-.72-.58-.92-.88-.31-1.92-.71-2.64-1.28-1.59-1.25-1.1-4.09.97-4.85v-.16a1.16 1.16 0 112.32 0v.1a3.8 3.8 0 011.3.7 1.154 1.154 0 01-1.56 1.7c-.3-.22-.75-.32-1.23-.17-.31.09-.39.41-.41.51-.04.2.02.33.04.36.47.37 1.41.71 1.99.92 3.03 1.07 2.66 5.12-.14 6.13z" fill="url(#a)"/><linearGradient id="b" gradientUnits="userSpaceOnUse" x1="20.934" y1="41.457" x2="20.934" y2="5.698"><stop offset="0" stop-color="#EDECFF"/><stop offset="1" stop-color="#EDECFF"/></linearGradient><path d="M34.62 23.72l-11.23 3.31c.36.87.55 1.82.55 2.8v.41c0 2.88-2.98 4.8-5.6 3.62l-5.89-2.65a1.16 1.16 0 01-.58-1.53 1.16 1.16 0 011.53-.58l5.89 2.65a1.66 1.66 0 002.34-1.51v-.41c0-1.99-1.2-3.74-2.98-4.54L13.56 23a7.48 7.48 0 00-6.21.03l-5.47 2.49c-.41.19-.68.6-.68 1.05v12.31c0 .87.83 1.39 1.57 1.11l7.7-2.93 9.16 3.21c2.08.73 4.37.51 6.28-.62l12.46-7.34a4.74 4.74 0 002.31-4.05c-.01-3.16-3.02-5.43-6.06-4.54z" fill="url(#b)"/></svg>